<svg width="155" height="200" viewBox="0 0 155 200" fill="none" xmlns="http://www.w3.org/2000/svg">
<g clip-path="url(#clip0_1_2)">
<g clip-path="url(#clip1_1_2)">
<path d="M81.9227 27.3529C80.0176 25.992 77.1598 25.5838 74.4381 26.6724C69.1308 28.9859 65.0483 33.6127 65.0483 42.7303C65.0483 43.5468 65.1844 596.864 65.1844 596.864H70.3556L70.2195 44.3633L79.7454 40.0087V56.8831L84.7805 54.8418C84.7805 54.8418 84.7805 38.2396 84.7805 34.1571C84.7805 30.755 83.6918 28.5776 81.9227 27.3529ZM79.7454 35.1096L70.2195 39.1922C70.2195 36.7426 71.8525 33.2045 75.1185 31.8436C79.2011 30.0745 79.7454 33.2045 79.7454 35.1096Z" fill="#6EBC45"/>
<path d="M128.327 8.84545C126.422 7.48461 123.565 6.94028 120.843 8.16503C115.536 10.4785 111.453 15.1053 111.453 24.2229C111.453 25.0394 111.453 596.728 111.453 596.728H116.624V25.8559L126.15 21.5013V38.3757L131.185 36.3344C131.185 36.3344 131.185 19.7322 131.185 15.6496C131.185 12.3836 130.097 10.0702 128.327 8.84545ZM126.15 16.7383L116.624 20.8208C116.624 18.3713 118.393 14.8331 121.523 13.4723C125.742 11.5671 126.15 14.6971 126.15 16.7383Z" fill="#6EBC45"/>
<path d="M22.8622 597H27.8973V77.4317L37.5593 73.6214V68.4502L27.8973 72.2605V59.8769L37.5593 56.0666V51.5758L27.8973 55.3861V50.215L37.5593 46.4046V41.3695L22.8622 47.2211V597Z" fill="#6EBC45"/>
<path d="M101.383 26.5364C101.791 25.1755 101.655 23.4064 101.655 22.1817V15.9218L96.6198 17.9631V25.3116C96.6198 27.2168 94.9868 28.0333 93.626 28.8498V19.1878C93.626 19.1878 88.7269 21.093 88.4548 21.2291V596.864H93.626V33.8849L97.0281 32.524C98.6611 31.8436 100.43 31.8436 101.383 32.524C102.335 33.0684 103.016 34.2931 103.152 35.7901V36.3344C103.152 36.4705 103.152 36.4705 103.152 36.6066V47.6294L108.187 45.5881V34.9736C108.187 34.8375 108.187 34.7014 108.187 34.5653C108.187 34.4292 108.187 34.2931 108.187 34.021C108.187 28.0333 103.832 26.6724 101.383 26.5364Z" fill="#6EBC45"/>
<path d="M155 15.3775C154.728 8.98154 150.237 7.89287 147.924 7.75678C148.74 4.89902 147.924 2.04126 145.882 0.816506C144.794 0.136086 143.025 -0.544333 140.167 0.544338C136.901 1.90518 135.268 2.44951 135.268 2.44951V596.864H140.439V14.9692L143.841 13.6084C145.474 12.928 147.243 12.928 148.196 13.6084C149.148 14.1527 149.829 15.3775 149.965 16.8744V17.4187C149.965 17.5548 149.965 17.5548 149.965 17.5548V28.8498L155 26.8085V15.9218C155 15.7857 155 15.6496 155 15.5136C155 15.6496 155 15.5136 155 15.3775ZM143.705 6.39594C143.705 7.48462 143.433 8.16504 143.161 8.70937C141.936 9.11762 140.983 9.66196 140.575 9.79804V5.30727C140.983 4.49077 143.705 4.08252 143.705 6.39594Z" fill="#6EBC45"/>
<path d="M61.9183 52.1201C61.6462 45.7242 57.1554 44.6355 54.842 44.4994C55.6585 41.6417 54.842 38.7839 52.8007 37.5592C51.712 36.8787 49.9429 36.1983 47.0852 37.287C43.8191 38.6478 42.1861 39.1922 42.1861 39.1922V596.047H47.3573V51.848L50.7594 50.4871C52.3924 49.8067 54.1615 49.8067 55.1141 50.4871C56.0667 51.0315 56.7471 52.2562 56.7471 53.7531V54.2975C56.7471 54.4336 56.7471 54.4336 56.7471 54.4336V65.8646L61.7823 63.8233V53.0727C61.7823 52.9366 61.7823 52.8005 61.7823 52.6645C61.9183 52.3923 61.9183 52.2562 61.9183 52.1201ZM50.6234 43.1386C50.6234 44.2273 50.3512 44.9077 50.079 45.452C48.8543 45.8603 47.9017 46.4046 47.4934 46.5407V41.9138C47.9017 41.2334 50.6234 40.8252 50.6234 43.1386Z" fill="#6EBC45"/>
<path d="M12.6558 61.5099C13.4723 58.6522 12.6558 55.7944 10.6146 54.5696C9.5259 53.8892 7.7568 53.2088 4.89903 54.2975C1.63301 55.6583 0 56.2026 0 56.2026V597H5.1712V86.2772L9.5259 84.6442C13.7445 83.0112 20.4126 77.9761 19.7322 69.5389C19.1879 62.3264 14.6971 61.646 12.6558 61.5099ZM5.1712 58.9243C5.71554 58.1078 8.30114 57.6996 8.30114 60.1491C8.30114 61.2377 8.02897 61.9182 7.7568 62.4625C6.53205 62.8708 5.57946 63.4151 5.1712 63.5512V58.9243V58.9243ZM5.1712 80.9699V75.9348V68.178C5.1712 68.178 14.2888 62.1903 14.8332 70.3554C15.2414 78.3843 5.1712 80.9699 5.1712 80.9699Z" fill="#6EBC45"/>
</g>
</g>
<defs>
<clipPath id="clip0_1_2">
<rect width="155" height="200" fill="white"/>
</clipPath>
<clipPath id="clip1_1_2">
<rect width="155" height="597" fill="white"/>
</clipPath>
</defs>
</svg>
