<?xml version="1.0" encoding="UTF-8"?>
<svg xmlns="http://www.w3.org/2000/svg" viewBox="0 0 216.7 415">
  <defs>
    <style>.cls-1{fill:#fff;}</style>
  </defs>
  <g id="Layer_1" data-name="Layer 1">
    <polygon class="cls-1" points="95.87 80.42 94.87 80.81 92.13 85.99 92.13 81.89 91.29 82.22 91.29 90.82 92.13 90.49 92.13 87.22 93.03 85.63 95.13 89.31 96.1 88.92 93.51 84.69 95.87 80.42"></polygon>
    <path class="cls-1" d="M110.11,74.71a4,4,0,0,0-2.08,2,7.9,7.9,0,0,0-.76,3.6,4.24,4.24,0,0,0,.78,2.89,1.69,1.69,0,0,0,2,.36,4,4,0,0,0,2-2,7.19,7.19,0,0,0,.8-3.44,4.77,4.77,0,0,0-.77-3.07A1.64,1.64,0,0,0,110.11,74.71Zm1.39,6.56a2.73,2.73,0,0,1-1.44,1.55,1.05,1.05,0,0,1-1.41-.4,4.28,4.28,0,0,1-.51-2.36,8.09,8.09,0,0,1,.48-2.94,2.75,2.75,0,0,1,1.53-1.66,1.06,1.06,0,0,1,1.32.39,4.31,4.31,0,0,1,.55,2.54A7.13,7.13,0,0,1,111.5,81.27Z"></path>
    <path class="cls-1" d="M127.39,73.42l-1.86-4-1,.4v8.59l.8-.31V73.58c0-.21,0-1.22-.08-3.06.34.81.63,1.48.88,2l1.27,2.77,1.49-4.49q.38-1.11.6-2v7.68l.75-.29v-8.6l-1,.4Z"></path>
    <path class="cls-1" d="M140.11,69.73a2.72,2.72,0,0,1-.41,1.5,2.27,2.27,0,0,1-1.07.89,1.05,1.05,0,0,1-1.1-.06,1.5,1.5,0,0,1-.39-1.16V64.71l-.83.33v6a2.18,2.18,0,0,0,.61,1.74,1.62,1.62,0,0,0,1.7.07A3.71,3.71,0,0,0,141,69.4V63.21l-.84.33Z"></path>
    <path class="cls-1" d="M151,64.22s0,.84.07,2.37l-.66-1.25-2.55-4.72L147,61v8.6l.75-.3v-5l0-.38V63l0-.66s0-.13,0-.31l.3.64c.19.44.32.72.39.85L150.93,68l.84-.33V59.09l-.75.29Z"></path>
    <polygon class="cls-1" points="157.85 65.29 158.69 64.96 158.69 56.36 157.85 56.69 157.85 65.29"></polygon>
    <polygon class="cls-1" points="169.34 52.16 168.35 52.55 165.6 57.73 165.6 53.64 164.77 53.97 164.77 62.56 165.6 62.23 165.6 58.97 166.5 57.37 168.6 61.05 169.57 60.67 166.99 56.43 169.34 52.16"></polygon>
    <path class="cls-1" d="M178,48.75l-2.37,9.52.92-.36.72-3.25,2.29-.9.73,2.68.93-.37-2.4-7.65Zm-.55,5.14.95-4.25,1,3.49Z"></path>
    <path class="cls-1" d="M191,47.87a3.68,3.68,0,0,0-1-.11,3.86,3.86,0,0,1-1.4-.2.8.8,0,0,1-.38-.79,2.08,2.08,0,0,1,.43-1.2,2.35,2.35,0,0,1,1.07-.86,1.52,1.52,0,0,1,.74-.11,2.55,2.55,0,0,1,.88.34V43.82a2.43,2.43,0,0,0-1.64.06A3.77,3.77,0,0,0,188,45.22a3.23,3.23,0,0,0-.69,1.91c0,1,.65,1.5,2,1.48a2.42,2.42,0,0,1,1.34.22,1,1,0,0,1,.35.83,2.39,2.39,0,0,1-.53,1.46,2.75,2.75,0,0,1-1.2,1,1.77,1.77,0,0,1-.84.13,3.78,3.78,0,0,1-1.06-.31V53a2.81,2.81,0,0,0,1.92,0,4.14,4.14,0,0,0,1.81-1.47,3.62,3.62,0,0,0,.76-2.15,1.63,1.63,0,0,0-.25-1A1.1,1.1,0,0,0,191,47.87Z"></path>
    <polygon class="cls-1" points="197.91 40.91 197.91 49.51 198.74 49.18 198.74 40.58 197.91 40.91"></polygon>
    <path class="cls-1" d="M79.22,68.15c0-2.45-.83-4.08-2.07-4.94a5.53,5.53,0,0,0-5.38-.48C67.91,64.39,65,67.78,65,74.36c0,.53.11,290.31.14,340h3.71L68.69,75.47l6.9-3.11,0,12.2,3.64-1.44S79.23,71.17,79.22,68.15ZM68.66,71.82a6.19,6.19,0,0,1,3.56-5.35c3-1.34,3.33,1,3.33,2.38Z"></path>
    <path class="cls-1" d="M110.73,49.87a5.55,5.55,0,0,0-5.38-.49c-3.86,1.66-6.82,5-6.82,11.61V414.35h3.72V62.12l6.9-3.1V71.24l3.64-1.45v-15C112.8,52.36,112,50.73,110.73,49.87Zm-8.51,8.59a6.21,6.21,0,0,1,3.58-5.34c3-1.33,3.32,1,3.32,2.39Z"></path>
    <polygon class="cls-1" points="38.11 79.76 38.11 83.47 45.08 80.73 45.08 83.95 38.11 86.7 38.11 95.7 45.08 92.95 45.08 96.6 38.11 99.35 38.11 414.35 34.49 414.35 34.49 77.53 45.08 73.36 45.08 77.01 38.11 79.76"></polygon>
    <path class="cls-1" d="M96.1,68.06v8.31l-3.68,1.45v-8a.38.38,0,0,1,0-.15v-.42a2.88,2.88,0,0,0-1.23-2.34,3.61,3.61,0,0,0-3.16,0l-2.47,1V414.35H81.84V58.79l3.75-1.47v6.95c1-.54,2.17-1.11,2.17-2.51V56.42L91.49,55v4.5a12.56,12.56,0,0,1-.22,3.16C93,62.72,96.1,63.7,96.1,68.06Z"></path>
    <path class="cls-1" d="M124.82,49.05c.58-2.1,0-4.17-1.43-5a4.35,4.35,0,0,0-4.11-.16c-2.41.94-3.56,1.42-3.56,1.42V414.35h3.7v-360l2.46-1a3.61,3.61,0,0,1,3.16,0,2.83,2.83,0,0,1,1.23,2.34v.42a.61.61,0,0,0,0,.14v8.16L130,63V54.53C129.81,50,126.57,49.15,124.82,49.05Zm-3.46.7a20.09,20.09,0,0,0-1.9.8v-3.3c.41-.56,2.3-.9,2.3.84A3.07,3.07,0,0,1,121.36,49.75Z"></path>
    <path class="cls-1" d="M62.72,81.08c-.17-4.57-3.4-5.37-5.15-5.48.58-2.1,0-4.16-1.43-5A4.4,4.4,0,0,0,52,70.42c-2.4,1-3.55,1.43-3.55,1.43v342.5h3.7V80.93l2.46-1a3.68,3.68,0,0,1,3.16,0A2.84,2.84,0,0,1,59,82.29v.57l0,8.31,3.67-1.45v-8c0-.1,0-.2,0-.31S62.73,81.2,62.72,81.08ZM54.1,76.31a19.56,19.56,0,0,0-1.89.8v-3.3c.41-.56,2.3-.9,2.3.84A3,3,0,0,1,54.1,76.31Z"></path>
    <path class="cls-1" d="M32.22,93.71c-.4-5.25-3.65-5.76-5.16-5.85.58-2.1,0-4.16-1.43-5a4.36,4.36,0,0,0-4.12-.16C19.11,83.62,18,84.1,18,84.1V414.35h3.7V105.82l3.14-1.23C27.83,103.4,32.69,99.82,32.22,93.71ZM21.7,86.06c.41-.56,2.3-.9,2.3.84a3,3,0,0,1-.41,1.66,20,20,0,0,0-1.89.81Zm0,15.92V92.76s6.62-4.29,7,1.61C29,100.08,21.67,102,21.67,102Z"></path>
  </g>
</svg>
