<svg xmlns="http://www.w3.org/2000/svg" viewBox="0 0 113.92 76.02"><defs><style>.cls-1{fill:#6ebc45;}</style></defs><g id="Text"><path class="cls-1" d="M79,25.32v8.27L75.32,35l0-7.94v-.56a2.84,2.84,0,0,0-1.22-2.34,3.64,3.64,0,0,0-3.14,0l-2.46,1v50H64.8V16.1l3.72-1.46v6.91c.95-.53,2.16-1.11,2.16-2.5V13.74l3.72-1.47v4.48a12.52,12.52,0,0,1-.22,3.15C75.91,20,79,21,79,25.32Z"/><path class="cls-1" d="M93.53,7.23a5.55,5.55,0,0,0-5.35-.49c-3.84,1.65-6.79,5-6.79,11.55v56.9h3.7V19.4L92,16.32V28.48L95.58,27V12.16C95.58,9.71,94.77,8.09,93.53,7.23Zm-8.47,8.55a6.22,6.22,0,0,1,3.56-5.33c3-1.32,3.31,1,3.31,2.39Z"/><path class="cls-1" d="M62.18,25.41c0-2.45-.82-4.06-2-4.92A5.54,5.54,0,0,0,54.77,20C50.93,21.67,48,25,48,31.58c0,.13,0,17,0,43.61h3.7V32.69l6.85-3.09,0,12.14,3.62-1.44S62.19,28.41,62.18,25.41Zm-10.5,3.65a6.17,6.17,0,0,1,3.55-5.32c3-1.33,3.3,1,3.3,2.36Z"/><path class="cls-1" d="M40.65,32.82c.58-2.09,0-4.13-1.42-5a4.37,4.37,0,0,0-4.09-.16c-2.4.94-3.54,1.42-3.54,1.42v46.1h3.68V38.13l2.46-1a3.64,3.64,0,0,1,3.14,0,2.84,2.84,0,0,1,1.22,2.33V40l0,8.26,3.66-1.44V38.27C45.6,33.72,42.39,32.93,40.65,32.82Zm-3.45.7c-.89.32-1.59.66-1.89.8V31c.41-.55,2.29-.89,2.29.84A2.92,2.92,0,0,1,37.2,33.52Z"/><polygon class="cls-1" points="21.29 36.95 21.29 40.65 28.22 37.92 28.22 41.13 21.29 43.86 21.29 52.81 28.22 50.08 28.22 53.71 21.29 56.44 21.29 75.19 17.7 75.19 17.7 34.74 28.22 30.59 28.22 34.22 21.29 36.95"/><path class="cls-1" d="M15.44,50.83C15,45.62,11.81,45.1,10.3,45c.58-2.09,0-4.13-1.42-5a4.39,4.39,0,0,0-4.1-.15c-2.38.94-3.54,1.42-3.54,1.42V75.19h3.7V62.88l3.12-1.23C11.06,60.47,15.91,56.91,15.44,50.83ZM5,43.22c.41-.56,2.29-.89,2.29.84a3.1,3.1,0,0,1-.4,1.65,18.47,18.47,0,0,0-1.89.8Zm0,15.84V49.88s6.58-4.26,6.94,1.61C12.22,57.17,4.94,59.06,4.94,59.06Z"/><path class="cls-1" d="M107.54,6.4c.59-2.08,0-4.13-1.42-5a4.35,4.35,0,0,0-4.1-.17L98.49,2.67V75.19h3.69V11.71l2.46-1a3.6,3.6,0,0,1,3.14,0A2.81,2.81,0,0,1,109,13.07v.55l0,8.12,3.66-1.44V11.85C112.5,7.3,109.28,6.51,107.54,6.4Zm-3.44.71a17.24,17.24,0,0,0-1.89.8V4.61c.41-.54,2.29-.89,2.29.85A3,3,0,0,1,104.1,7.11Z"/></g></svg>