<?xml version="1.0" encoding="UTF-8"?>
<svg xmlns="http://www.w3.org/2000/svg" viewBox="0 0 582.1 1080">
  <defs>
    <style>.cls-1{fill:#fff;}</style>
  </defs>
  <g id="Layer_1" data-name="Layer 1">
    <polygon class="cls-1" points="261.64 443.73 258.83 444.83 251.06 459.48 251.06 447.89 248.7 448.82 248.7 473.15 251.06 472.22 251.06 462.98 253.6 458.47 259.55 468.87 262.31 467.79 254.99 455.8 261.64 443.73"></polygon>
    <path class="cls-1" d="M302,427.57a11.22,11.22,0,0,0-5.91,5.78,22.44,22.44,0,0,0-2.14,10.17c0,3.86.73,6.59,2.21,8.2s3.39,1.92,5.76,1a11.36,11.36,0,0,0,5.71-5.57,20.24,20.24,0,0,0,2.25-9.72c0-4.1-.72-7-2.18-8.7S304.31,426.64,302,427.57Zm3.93,18.55a7.67,7.67,0,0,1-4.07,4.4,3,3,0,0,1-4-1.12c-1-1.44-1.45-3.67-1.45-6.71a22.73,22.73,0,0,1,1.38-8.32,7.75,7.75,0,0,1,4.32-4.68,3,3,0,0,1,3.74,1.11q1.54,1.95,1.55,7.17A20.48,20.48,0,0,1,305.89,446.12Z"></path>
    <path class="cls-1" d="M350.85,423.92,345.6,412.6l-2.86,1.12v24.33l2.25-.89v-12.8q0-.87-.23-8.64,1.46,3.42,2.5,5.69l3.59,7.86,4.23-12.7q1.05-3.15,1.68-5.79c0,1,0,1.73,0,2.23v19.51l2.14-.84V407.36l-2.84,1.12Z"></path>
    <path class="cls-1" d="M386.85,413.47a7.62,7.62,0,0,1-1.15,4.24,6.21,6.21,0,0,1-3,2.51c-1.32.53-2.36.48-3.1-.15a4.18,4.18,0,0,1-1.1-3.29V399.27l-2.35.92v17c0,2.34.58,4,1.73,4.94s2.75,1,4.79.2a10,10,0,0,0,4.79-3.84,10.38,10.38,0,0,0,1.82-6V395l-2.39.94Z"></path>
    <path class="cls-1" d="M417.74,397.87c0,.14.06,2.38.19,6.7L416.05,401l-7.2-13.36-2.41.95V413l2.11-.83V398l.05-1.06v-2.7l-.09-1.85c0-.08,0-.37.05-.87l.84,1.81c.55,1.22.91,2,1.11,2.39l7,12.85,2.37-.93V383.35l-2.11.83Z"></path>
    <polygon class="cls-1" points="437.06 400.89 439.42 399.96 439.42 375.64 437.06 376.57 437.06 400.89"></polygon>
    <polygon class="cls-1" points="469.57 363.76 466.76 364.87 458.99 379.5 458.99 367.93 456.64 368.86 456.64 393.18 458.99 392.25 458.99 383.01 461.53 378.5 467.48 388.91 470.23 387.82 462.91 375.83 469.57 363.76"></polygon>
    <path class="cls-1" d="M494.13,354.08l-6.69,27,2.59-1,2-9.21,6.47-2.54,2.06,7.59,2.65-1.05-6.78-21.65Zm-1.56,14.57,2.7-12,2.75,9.9Z"></path>
    <path class="cls-1" d="M530.73,351.61a11.2,11.2,0,0,0-2.77-.32,10.62,10.62,0,0,1-4-.57,2.24,2.24,0,0,1-1.08-2.22,6,6,0,0,1,1.2-3.39,6.69,6.69,0,0,1,3-2.45,4.1,4.1,0,0,1,2.08-.3,7.75,7.75,0,0,1,2.51.95v-3.16a6.84,6.84,0,0,0-4.64.15,10.75,10.75,0,0,0-4.71,3.79,9.18,9.18,0,0,0-1.95,5.43c0,2.84,1.84,4.22,5.52,4.17a7.06,7.06,0,0,1,3.79.63,2.73,2.73,0,0,1,1,2.36,6.69,6.69,0,0,1-1.5,4.13,8,8,0,0,1-3.39,2.69,5.09,5.09,0,0,1-2.37.37,11,11,0,0,1-3-.9v3a8,8,0,0,0,5.43-.13,11.64,11.64,0,0,0,5.14-4.15,10.33,10.33,0,0,0,2.15-6.1,4.59,4.59,0,0,0-.71-2.7A3.13,3.13,0,0,0,530.73,351.61Z"></path>
    <polygon class="cls-1" points="550.41 331.92 550.41 356.24 552.78 355.3 552.78 330.98 550.41 331.92"></polygon>
    <path class="cls-1" d="M208.66,395a15.71,15.71,0,0,0-15.22-1.35c-10.92,4.71-19.27,14.28-19.23,32.91,0,1.75.4,653.17.4,653.17l10.52,0-.39-650,19.5-8.81.11,34.53,10.28-4.08s-.08-33.82-.1-42.35C214.52,402,212.18,397.44,208.66,395Zm-4.51,16-19.52,8.4a17.61,17.61,0,0,1,10.09-15.15C203.26,400.44,204.14,407,204.15,411Z"></path>
    <path class="cls-1" d="M303.71,357.26a15.72,15.72,0,0,0-15.23-1.38c-10.93,4.67-19.3,14.23-19.3,32.86v690.83H279.7V391.91l19.52-8.77,0,34.6,10.29-4.11V371.27C309.54,364.32,307.21,359.7,303.71,357.26Zm-4.56,16-19.53,8.35a17.61,17.61,0,0,1,10.12-15.12C298.29,362.69,299.15,369.2,299.15,373.22Z"></path>
    <polygon class="cls-1" points="87.95 1080 98.17 1080 98.17 497.28 117.9 489.51 117.9 479.17 98.17 486.94 98.17 461.49 117.9 453.71 117.9 444.58 98.17 452.35 98.17 441.84 117.9 434.07 117.9 423.73 87.95 435.53 87.95 1080"></polygon>
    <path class="cls-1" d="M248.62,393.32c.85-2.67.55-6.39.63-8.95V371.63l-10.59,4.16V390.9c0,4-3.45,5.58-6.14,7.11V378.35s-10,3.92-10.6,4.15v697.07h10.49l0-671.27,7-2.75c3.42-1.34,6.91-1.37,8.94,0a8.09,8.09,0,0,1,3.48,6.63v1.19c0,.15,0,.29,0,.42l0,22.58,10.4-4.09V410.63c0-.3,0-.59,0-.89s0-.68,0-1C262.29,396.38,253.56,393.63,248.62,393.32Z"></path>
    <path class="cls-1" d="M358.16,370.43c-.48-12.95-9.64-15.21-14.58-15.51,1.65-5.94.05-11.77-4.05-14.2-2.22-1.32-5.9-2.72-11.65-.46-6.8,2.68-10.07,4-10.07,4V1079.9H328.3l0-709.89,7-2.75c3.42-1.34,6.92-1.36,8.94,0a8.06,8.06,0,0,1,3.48,6.62v1.19c0,.14,0,.28,0,.41l0,23.09,10.4-4.1V372.33c0-.3,0-.59,0-.88S358.17,370.77,358.16,370.43Zm-23.25-18.22a8.61,8.61,0,0,1-1.14,4.7c-2.55.92-4.53,1.89-5.37,2.28v-9.35C329.56,348.26,334.91,347.29,334.91,352.21Z"></path>
    <path class="cls-1" d="M167.84,445.59c-.48-12.95-9.64-15.21-14.58-15.51,1.64-5.94.05-11.77-4-14.21-2.23-1.32-5.9-2.71-11.65-.45-6.8,2.68-10.07,4-10.07,4v658.6H138l0-632.88,7-2.75c3.42-1.35,6.92-1.37,8.94,0a8.06,8.06,0,0,1,3.48,6.63v1.19c0,.14,0,.27,0,.41l0,23.5,10.4-4.1V447.48c0-.29,0-.58,0-.87S167.85,445.93,167.84,445.59Zm-23.25-18.22a8.63,8.63,0,0,1-1.14,4.7,54.13,54.13,0,0,0-5.37,2.28V425C139.24,423.42,144.59,422.45,144.59,427.37Z"></path>
    <path class="cls-1" d="M66.92,464.76c1.64-5.94,0-11.78-4.05-14.21-2.22-1.32-5.9-2.71-11.65-.45-6.8,2.68-10.07,4-10.07,4V1080H51.64l0-564.4,8.88-3.5c8.55-3.37,22.31-13.5,21-30.78C80.38,466.48,71.19,465,66.92,464.76Zm-15.18-5.08c1.16-1.59,6.51-2.55,6.51,2.37a8.63,8.63,0,0,1-1.14,4.7A54.13,54.13,0,0,0,51.74,469Zm-.08,45.05v-26.1s18.74-12.15,19.74,4.56C72.37,499.35,51.66,504.73,51.66,504.73Z"></path>
  </g>
</svg>
